{
	"asset":{
		"generator":"Khronos glTF Blender I/O v4.2.70",
		"version":"2.0"
	},
	"extensionsUsed":[
		"KHR_materials_specular"
	],
	"scene":0,
	"scenes":[
		{
			"name":"Scene",
			"nodes":[
				0
			]
		}
	],
	"nodes":[
		{
			"mesh":0,
			"name":"shelve",
			"rotation":[
				0.70710688829422,
				0,
				0,
				0.7071066498756409
			],
			"scale":[
				0.009999999776482582,
				0.010000000707805157,
				0.010000000707805157
			]
		}
	],
	"materials":[
		{
			"doubleSided":true,
			"extensions":{
				"KHR_materials_specular":{
					"specularFactor":0.6600000262260437
				}
			},
			"name":"Metal_Silver",
			"pbrMetallicRoughness":{
				"baseColorFactor":[
					0.9176470041275024,
					0.9137250185012817,
					0.9333329796791077,
					1
				],
				"metallicFactor":0
			}
		},
		{
			"doubleSided":true,
			"extensions":{
				"KHR_materials_specular":{
					"specularFactor":0.6600000262260437
				}
			},
			"name":"Color_M07",
			"pbrMetallicRoughness":{
				"baseColorFactor":[
					0.22745099663734436,
					0.22745099663734436,
					0.22745099663734436,
					1
				],
				"metallicFactor":0
			}
		},
		{
			"doubleSided":true,
			"extensions":{
				"KHR_materials_specular":{
					"specularFactor":0.6600000262260437
				}
			},
			"name":"Color_A01",
			"pbrMetallicRoughness":{
				"baseColorTexture":{
					"index":0
				},
				"metallicFactor":0
			}
		}
	],
	"meshes":[
		{
			"name":"shelve",
			"primitives":[
				{
					"attributes":{
						"POSITION":0,
						"NORMAL":1,
						"TEXCOORD_0":2
					},
					"indices":3,
					"material":0
				},
				{
					"attributes":{
						"POSITION":4,
						"NORMAL":5,
						"TEXCOORD_0":6
					},
					"indices":7,
					"material":1
				},
				{
					"attributes":{
						"POSITION":8,
						"NORMAL":9,
						"TEXCOORD_0":10
					},
					"indices":11,
					"material":2
				}
			]
		}
	],
	"textures":[
		{
			"sampler":0,
			"source":0
		}
	],
	"images":[
		{
			"mimeType":"image/jpeg",
			"name":"Color_A01",
			"uri":"shelve/Color_A01.jpg"
		}
	],
	"accessors":[
		{
			"bufferView":0,
			"componentType":5126,
			"count":2284,
			"max":[
				15.872492790222168,
				28.286203384399414,
				-4
			],
			"min":[
				14.720000267028809,
				-27.871599197387695,
				-99.36000061035156
			],
			"type":"VEC3"
		},
		{
			"bufferView":1,
			"componentType":5126,
			"count":2284,
			"type":"VEC3"
		},
		{
			"bufferView":2,
			"componentType":5126,
			"count":2284,
			"type":"VEC2"
		},
		{
			"bufferView":3,
			"componentType":5123,
			"count":4140,
			"type":"SCALAR"
		},
		{
			"bufferView":4,
			"componentType":5126,
			"count":432,
			"max":[
				16.32183074951172,
				31.3832950592041,
				0
			],
			"min":[
				-13.680000305175781,
				-30.6200008392334,
				-120
			],
			"type":"VEC3"
		},
		{
			"bufferView":5,
			"componentType":5126,
			"count":432,
			"type":"VEC3"
		},
		{
			"bufferView":6,
			"componentType":5126,
			"count":432,
			"type":"VEC2"
		},
		{
			"bufferView":7,
			"componentType":5123,
			"count":840,
			"type":"SCALAR"
		},
		{
			"bufferView":8,
			"componentType":5126,
			"count":428,
			"max":[
				16.32012176513672,
				31.3769474029541,
				-2
			],
			"min":[
				-13.680000305175781,
				-30.6200008392334,
				-118
			],
			"type":"VEC3"
		},
		{
			"bufferView":9,
			"componentType":5126,
			"count":428,
			"type":"VEC3"
		},
		{
			"bufferView":10,
			"componentType":5126,
			"count":428,
			"type":"VEC2"
		},
		{
			"bufferView":11,
			"componentType":5123,
			"count":762,
			"type":"SCALAR"
		}
	],
	"bufferViews":[
		{
			"buffer":0,
			"byteLength":27408,
			"byteOffset":0,
			"target":34962
		},
		{
			"buffer":0,
			"byteLength":27408,
			"byteOffset":27408,
			"target":34962
		},
		{
			"buffer":0,
			"byteLength":18272,
			"byteOffset":54816,
			"target":34962
		},
		{
			"buffer":0,
			"byteLength":8280,
			"byteOffset":73088,
			"target":34963
		},
		{
			"buffer":0,
			"byteLength":5184,
			"byteOffset":81368,
			"target":34962
		},
		{
			"buffer":0,
			"byteLength":5184,
			"byteOffset":86552,
			"target":34962
		},
		{
			"buffer":0,
			"byteLength":3456,
			"byteOffset":91736,
			"target":34962
		},
		{
			"buffer":0,
			"byteLength":1680,
			"byteOffset":95192,
			"target":34963
		},
		{
			"buffer":0,
			"byteLength":5136,
			"byteOffset":96872,
			"target":34962
		},
		{
			"buffer":0,
			"byteLength":5136,
			"byteOffset":102008,
			"target":34962
		},
		{
			"buffer":0,
			"byteLength":3424,
			"byteOffset":107144,
			"target":34962
		},
		{
			"buffer":0,
			"byteLength":1524,
			"byteOffset":110568,
			"target":34963
		}
	],
	"samplers":[
		{
			"magFilter":9729,
			"minFilter":9987
		}
	],
	"buffers":[
		{
			"byteLength":112092,
			"uri":"shelve.bin"
		}
	]
}
